<?xml version="1.0" encoding="UTF-8" standalone="no"?>
<!-- Created with Inkscape (http://www.inkscape.org/) -->

<svg
   version="1.1"
   id="svg1"
   width="85.769997"
   height="26.722"
   viewBox="0 0 171.53999 53.444"
   sodipodi:docname="signature (3).svg"
   inkscape:version="1.4 (86a8ad7, 2024-10-11)"
   xmlns:inkscape="http://www.inkscape.org/namespaces/inkscape"
   xmlns:sodipodi="http://sodipodi.sourceforge.net/DTD/sodipodi-0.dtd"
   xmlns="http://www.w3.org/2000/svg"
   xmlns:svg="http://www.w3.org/2000/svg">
  <defs
     id="defs1" />
  <sodipodi:namedview
     id="namedview1"
     pagecolor="#ffffff"
     bordercolor="#000000"
     borderopacity="0.25"
     inkscape:showpageshadow="2"
     inkscape:pageopacity="0.0"
     inkscape:pagecheckerboard="0"
     inkscape:deskcolor="#d1d1d1"
     showgrid="false"
     inkscape:zoom="1.0134146"
     inkscape:cx="410"
     inkscape:cy="99.663057"
     inkscape:window-width="1280"
     inkscape:window-height="730"
     inkscape:window-x="-6"
     inkscape:window-y="-6"
     inkscape:window-maximized="1"
     inkscape:current-layer="svg1" />
  <path
     style="display:inline;fill:#000000;stroke-width:0.806414"
     d="m 37.671756,47.161124 c -6.97132,-5.009428 10.67063,-40.980551 20.9192,-42.6532775 1.34332,-0.2192504 3.73276,0.081409 5.57768,0.7018283 2.9946,1.0070372 3.18918,1.2717472 2.69522,3.6666592 -0.66171,3.208189 -5.00771,7.921767 -14.70557,15.949338 -10.95934,9.071782 -11.00898,9.137271 -11.69105,15.42249 -0.63811,5.880066 0.31734,7.853775 3.42636,7.077937 1.05506,-0.263281 1.34738,-0.140745 0.86787,0.363806 -1.13101,1.190069 -5.11077,0.893236 -7.08971,-0.528781 z m 16.53846,-26.159505 c 5.83906,-5.511199 10.91669,-11.712843 10.93645,-13.357412 0.0189,-1.572726 -2.87834,-0.786759 -5.99289,1.625757 -3.16861,2.454389 -12.80201,14.787963 -14.85704,19.021363 l -1.10487,2.27606 2.50872,-1.950909 c 1.3798,-1.073 5.20913,-4.499686 8.50963,-7.614859 z M 86.60015,47.614366 c -0.30264,-0.512862 -0.0918,-4.411923 0.46843,-8.664577 0.91236,-6.925133 0.42747,-11.954987 -1.25817,-13.051161 -1.1146,-0.72483 -2.703144,0.617179 -2.127264,1.797124 0.455824,0.933942 0.12472,1.245878 -1.32241,1.245878 -1.6588,0 -2.00504,0.604037 -2.46027,4.292056 -1.04564,8.471129 -8.34249,14.566731 -17.43737,14.566731 -6.07266,0 -9.30666,-2.096245 -9.30666,-6.032478 0,-3.247432 2.47723,-8.483098 4.54065,-9.596733 0.99429,-0.536622 1.22254,-1.570395 0.7948,-3.599785 -0.42557,-2.019095 -0.14792,-3.295714 0.95478,-4.390137 3.58165,-3.554746 12.85654,-3.877991 16.65556,-0.580473 4.52434,3.927106 5.47855,4.241363 6.34396,2.089304 0.68716,-1.708817 5.050734,-1.729494 7.654474,-0.03627 2.39929,1.56026 3.35708,4.667488 2.90275,9.416925 -0.19083,1.994949 -0.12197,3.619236 0.15303,3.609525 0.275,-0.0097 2.05594,-1.508714 3.95765,-3.331119 5.08001,-4.868168 16.53336,-12.615681 20.05074,-13.563136 4.20456,-1.132559 5.13907,-0.193381 1.48978,1.497235 -5.46809,2.533222 -15.37212,9.020826 -18.99856,12.444944 -1.96617,1.856479 -4.83883,5.405354 -6.38368,7.886384 -2.73087,4.385761 -5.47408,6.030223 -6.67222,3.999768 z M 67.433026,45.602049 c 4.53186,-2.731267 8.02659,-8.075578 8.13044,-12.433449 0.0888,-3.726365 -0.0129,-3.894308 -2.2623,-3.734781 -1.29539,0.09187 -3.76551,0.820065 -5.48916,1.618209 -2.50004,1.157662 -2.78214,1.495224 -1.39473,1.668978 0.95654,0.119794 1.73916,0.520711 1.73916,0.890925 0,0.372864 -1.00365,0.510001 -2.25,0.307438 -1.7597,-0.285995 -2.72114,0.102777 -4.4121,1.784088 -7.26806,7.226613 -2.58353,15.034767 5.93869,9.898592 z m -0.76144,-18.023102 c 5.94884,-2.183275 6.51027,-2.786801 3.55059,-3.816861 -4.5871,-1.596455 -8.26624,-0.162307 -9.5339,3.716362 -0.37991,1.162417 -0.42318,2.113485 -0.0961,2.113485 0.32704,0 3.06279,-0.905843 6.07946,-2.012986 z M 111.62172,47.86522 c -3.45062,-0.965999 -4.65931,-2.494282 -4.61944,-5.840912 0.0855,-7.175996 12.82557,-18.285102 20.96964,-18.285102 2.98835,0 7.18452,2.495267 7.18452,4.272295 0,2.246916 -6.31274,6.504602 -11.58587,7.8142 -6.20292,1.540514 -6.64642,0.697252 -0.66922,-1.272436 5.33718,-1.758777 8.29442,-4.078215 8.57705,-6.727178 0.31074,-2.912584 -2.32862,-2.400257 -8.33842,1.618573 -8.6782,5.803219 -14.04977,13.6771 -10.97444,16.086824 3.23591,2.535558 10.08102,0.311222 19.85101,-6.450633 2.94805,-2.040365 5.55708,-3.58166 5.79783,-3.425101 0.73981,0.481101 -8.97424,8.327915 -12.80696,10.345208 -3.83401,2.017974 -9.84581,2.855254 -13.3857,1.864262 z"
     id="path1"
     inkscape:label="path1" />
</svg>
