<svg width="182.327" height="92.94" viewBox="0 0 182.327 92.94" xmlns="http://www.w3.org/2000/svg"><g id="svgGroup" stroke-linecap="round" fill-rule="evenodd" font-size="9pt" stroke="#000" stroke-width="0.25mm" fill="#000" style="stroke:#000;stroke-width:0.25mm;fill:#000"><path d="M 86.445 40.54 L 87.245 41.64 L 86.345 43.24 Q 85.545 44.64 83.845 45.34 Q 82.645 45.64 82.145 45.64 Q 81.645 45.64 80.545 44.94 Q 79.045 44.24 77.045 43.84 Q 73.045 43.34 65.595 43.29 Q 58.145 43.24 54.645 43.64 Q 51.945 44.14 48.045 44.54 Q 44.145 44.94 43.645 45.14 Q 43.145 45.34 42.945 54.24 Q 42.445 67.34 42.045 72.04 Q 41.845 74.34 41.395 79.49 Q 40.945 84.64 40.595 86.09 Q 40.245 87.54 40.045 88.54 Q 39.845 89.54 38.845 90.74 Q 38.045 91.64 37.845 91.69 Q 37.645 91.74 37.145 91.14 Q 36.445 90.24 36.245 88.89 Q 36.045 87.54 35.645 85.14 Q 35.245 83.44 34.795 77.69 Q 34.345 71.94 34.245 69.44 Q 34.245 67.34 34.295 61.79 Q 34.345 56.24 34.245 53.79 Q 34.145 51.34 34.045 48.64 Q 34.045 46.74 33.895 46.44 Q 33.745 46.14 32.945 46.14 Q 31.745 46.14 29.745 46.74 Q 27.745 47.34 23.345 47.94 Q 13.645 49.24 8.045 53.24 Q 6.945 53.94 6.145 53.94 Q 5.345 53.94 3.845 53.24 Q 2.345 52.54 1.445 51.74 Q -0.255 50.24 0.045 49.24 Q 0.045 48.94 0.345 48.94 Q 0.845 48.94 3.945 47.64 Q 12.645 43.84 32.345 40.84 L 34.245 40.54 L 34.445 27.24 Q 34.645 13.84 35.245 13.14 Q 36.145 12.14 38.645 13.64 Q 39.645 14.34 40.745 14.99 Q 41.845 15.64 42.845 17.44 Q 43.345 18.64 43.545 19.89 Q 43.745 21.14 43.745 25.14 Q 43.745 31.14 44.045 31.24 Q 44.445 31.44 44.895 31.09 Q 45.345 30.74 46.345 29.34 Q 53.445 19.94 53.445 17.64 Q 53.345 17.04 53.645 16.69 Q 53.945 16.34 54.845 16.14 Q 55.945 15.84 56.295 15.94 Q 56.645 16.04 57.545 16.94 Q 58.945 18.14 59.795 18.59 Q 60.645 19.04 61.545 20.84 Q 62.445 22.64 62.145 23.64 Q 61.345 26.04 59.245 26.74 Q 57.645 27.34 56.445 28.34 Q 55.245 29.34 52.495 30.94 Q 49.745 32.54 46.895 34.69 Q 44.045 36.84 43.745 37.54 Q 43.145 38.74 44.545 39.04 Q 45.945 39.14 50.845 38.74 Q 57.245 38.34 60.245 37.94 Q 63.245 37.54 68.945 37.54 Q 74.645 37.54 74.645 37.09 Q 74.645 36.64 75.345 36.64 Q 76.045 36.64 77.345 35.84 Q 80.045 34.24 81.345 36.34 Q 82.145 37.64 83.845 38.54 Q 85.545 39.44 86.445 40.54 Z M 142.045 47.44 L 145.145 47.44 L 145.945 45.74 Q 146.745 44.14 146.745 43.24 Q 146.745 42.34 147.645 42.34 Q 149.445 42.34 150.545 45.14 L 151.345 46.94 L 158.345 47.14 Q 165.445 47.54 169.845 47.14 Q 177.545 46.54 180.145 48.04 Q 182.045 49.24 182.295 51.94 Q 182.545 54.64 180.845 56.04 Q 179.745 57.14 178.595 57.14 Q 177.445 57.14 174.045 56.04 Q 170.545 54.94 164.345 54.64 Q 153.945 53.84 152.845 54.84 Q 152.245 55.34 152.045 57.14 Q 151.845 58.84 151.145 61.09 Q 150.445 63.34 150.045 63.94 Q 149.545 64.54 148.745 67.84 Q 148.545 68.84 149.295 69.54 Q 150.045 70.24 153.545 72.64 Q 156.745 74.84 157.395 75.44 Q 158.045 76.04 159.545 76.94 Q 161.545 78.34 163.745 80.74 Q 165.945 83.14 165.945 83.84 Q 165.945 84.24 166.545 84.49 Q 167.145 84.74 167.145 86.29 Q 167.145 87.84 166.545 88.09 Q 165.945 88.34 165.945 88.79 Q 165.945 89.24 164.245 91.14 Q 163.145 92.44 162.595 92.69 Q 162.045 92.94 160.545 92.94 Q 158.245 92.94 156.995 92.29 Q 155.745 91.64 154.845 89.94 Q 153.945 88.24 151.595 85.19 Q 149.245 82.14 148.045 81.34 Q 146.945 80.54 145.145 79.09 Q 143.345 77.64 143.145 77.64 Q 142.745 77.64 140.895 78.84 Q 139.045 80.04 137.545 81.34 Q 135.145 83.44 132.945 84.79 Q 130.745 86.14 130.295 86.79 Q 129.845 87.44 129.445 87.44 Q 129.045 87.44 126.995 88.74 Q 124.945 90.04 122.095 91.39 Q 119.245 92.74 118.745 92.24 Q 118.345 91.84 119.245 90.94 Q 120.145 90.04 124.845 85.84 Q 127.245 83.74 128.745 81.74 L 131.245 78.64 Q 132.045 77.54 132.195 77.14 Q 132.345 76.74 133.245 75.39 Q 134.145 74.04 134.145 73.64 Q 134.145 73.24 131.945 72.69 Q 129.745 72.14 128.145 72.14 Q 126.345 72.14 125.745 71.69 Q 125.145 71.24 125.145 69.84 Q 125.145 68.64 124.745 68.34 Q 123.745 67.74 126.945 60.44 Q 129.045 55.44 128.795 55.19 Q 128.545 54.94 125.595 55.29 Q 122.645 55.64 121.745 55.94 Q 121.045 56.44 118.545 56.84 Q 116.645 57.24 114.545 58.04 Q 112.445 58.84 111.945 59.44 Q 110.645 60.74 107.545 58.74 Q 106.145 57.84 105.445 56.64 Q 104.745 55.44 105.045 54.74 Q 105.345 53.64 110.245 52.34 Q 119.345 49.94 122.445 49.64 Q 124.245 49.54 127.545 48.94 Q 130.045 48.54 130.545 48.34 Q 131.045 48.14 131.345 47.44 Q 132.745 39.94 134.345 36.04 Q 135.045 34.74 135.045 33.64 Q 135.045 32.54 135.795 31.04 Q 136.545 29.54 137.245 29.24 Q 137.845 28.94 138.145 28.94 Q 139.045 28.84 140.745 32.14 Q 141.645 34.04 141.945 36.64 Q 142.245 39.24 141.545 39.94 Q 140.245 41.44 139.645 44.24 Q 139.345 46.04 139.045 46.74 Q 138.845 47.24 139.645 47.44 L 142.045 47.44 Z M 139.445 0.74 L 142.045 3.64 L 144.045 5.94 L 143.945 8.34 Q 143.745 10.64 144.145 11.29 Q 144.545 11.94 146.345 12.24 Q 153.645 12.94 158.845 14.14 Q 160.645 14.44 163.995 14.64 Q 167.345 14.84 168.245 15.44 Q 169.145 16.04 170.845 16.94 Q 174.145 18.64 175.045 19.54 Q 175.945 20.44 176.045 22.04 Q 176.245 23.74 175.045 25.54 Q 173.745 27.54 172.595 28.09 Q 171.445 28.64 169.145 28.44 Q 166.645 28.14 165.245 28.14 Q 164.345 28.14 160.845 28.84 Q 157.345 29.54 154.845 30.34 Q 154.545 30.44 154.445 30.34 Q 154.345 30.24 154.445 29.94 Q 154.645 29.24 155.795 27.64 Q 156.945 26.04 157.545 25.59 Q 158.145 25.14 158.895 23.39 Q 159.645 21.64 159.345 21.24 Q 159.145 20.64 155.345 19.49 Q 151.545 18.34 147.845 17.74 L 143.645 17.04 L 142.145 18.24 Q 140.645 19.54 140.295 19.54 Q 139.945 19.54 138.645 18.34 Q 137.645 17.54 137.145 17.39 Q 136.645 17.24 134.645 17.44 Q 132.045 17.74 130.495 18.24 Q 128.945 18.74 128.145 18.74 Q 127.145 18.74 124.695 19.54 Q 122.245 20.34 121.145 21.14 Q 119.645 21.94 119.645 23.19 Q 119.645 24.44 119.045 25.44 Q 118.445 26.44 118.445 27.79 Q 118.445 29.14 117.995 30.44 Q 117.545 31.74 117.995 33.54 Q 118.445 35.34 117.845 36.34 Q 116.645 38.84 114.045 38.84 Q 112.245 38.84 110.945 37.14 Q 109.645 35.44 109.345 32.54 Q 109.145 30.74 109.295 29.94 Q 109.445 29.14 110.245 27.54 Q 111.345 25.24 112.045 23.44 Q 113.245 20.24 114.395 18.94 Q 115.545 17.64 116.945 17.64 Q 117.945 17.64 120.745 16.24 Q 123.545 14.84 126.645 14.19 Q 129.745 13.54 131.595 12.99 Q 133.445 12.44 134.045 12.44 Q 135.045 12.44 134.145 10.84 Q 132.845 8.54 132.845 2.84 Q 132.845 0.14 132.945 0.04 Q 133.045 -0.06 135.995 0.09 Q 138.945 0.24 139.445 0.74 Z M 40.445 3.44 Q 46.145 2.94 46.345 2.59 Q 46.545 2.24 47.395 1.79 Q 48.245 1.34 48.945 1.34 Q 49.745 1.34 52.095 2.54 Q 54.445 3.74 55.145 4.34 Q 55.945 5.34 55.795 6.89 Q 55.645 8.44 54.945 9.14 Q 53.045 10.64 51.845 9.44 Q 51.245 8.94 46.445 9.09 Q 41.645 9.24 38.845 9.94 Q 35.645 10.84 35.145 11.19 Q 34.645 11.54 31.345 11.84 Q 28.045 12.14 26.645 11.44 Q 25.245 10.94 23.895 9.64 Q 22.545 8.34 22.545 7.84 Q 22.545 7.14 28.895 5.64 Q 35.245 4.14 40.445 3.44 Z M 20.845 25.74 Q 20.845 24.54 22.945 25.74 Q 23.645 26.24 24.245 26.94 Q 25.045 27.64 25.945 27.44 Q 27.345 27.04 27.695 27.24 Q 28.045 27.44 28.145 28.64 Q 28.245 30.24 28.945 31.14 Q 29.845 32.34 29.245 34.94 Q 28.645 37.54 27.145 38.84 Q 26.545 39.44 26.195 39.44 Q 25.845 39.44 24.845 38.74 Q 23.345 37.84 23.145 37.14 Q 22.945 36.44 22.045 35.04 Q 20.845 33.04 20.195 29.99 Q 19.545 26.94 20.245 26.64 Q 20.845 26.44 20.845 25.74 Z M 142.945 55.94 Q 142.945 54.34 142.645 54.24 Q 141.845 54.14 138.945 54.49 Q 136.045 54.84 135.745 55.04 Q 135.445 55.44 134.595 57.54 Q 133.745 59.64 133.545 60.74 Q 133.345 61.74 134.145 62.34 Q 134.945 62.94 137.445 63.94 Q 140.445 64.84 140.445 63.84 Q 140.445 63.44 140.945 62.24 Q 142.945 57.64 142.945 55.94 Z" vector-effect="non-scaling-stroke"/></g></svg>